0
SECTION
2
HEADER
9
$INSUNITS
70
4
9
$ACADVER
1
AC1014
9
$HANDSEED
5
FFFF
0
ENDSEC
0
SECTION
2
TABLES
0
TABLE
2
VPORT
5
8
100
AcDbSymbolTable
0
ENDTAB
0
TABLE
2
LTYPE
5
5
100
AcDbSymbolTable
0
LTYPE
5
14
100
AcDbSymbolTableRecord
100
AcDbLinetypeTableRecord
2
BYBLOCK
70
0
0
LTYPE
5
15
100
AcDbSymbolTableRecord
100
AcDbLinetypeTableRecord
2
BYLAYER
70
0
0
ENDTAB
0
TABLE
2
LAYER
5
2
100
AcDbSymbolTable
70
2
0
LAYER
5
50
100
AcDbSymbolTableRecord
100
AcDbLayerTableRecord
2
0
70
0
6
CONTINUOUS
0
ENDTAB
0
TABLE
2
STYLE
5
3
100
AcDbSymbolTable
70
1
0
STYLE
5
11
100
AcDbSymbolTableRecord
100
AcDbTextStyleTableRecord
2
STANDARD
70
0
0
ENDTAB
0
TABLE
2
VIEW
5
6
100
AcDbSymbolTable
70
0
0
ENDTAB
0
TABLE
2
UCS
5
7
100
AcDbSymbolTable
70
0
0
ENDTAB
0
TABLE
2
APPID
5
9
100
AcDbSymbolTable
70
2
0
APPID
5
12
100
AcDbSymbolTableRecord
100
AcDbRegAppTableRecord
2
ACAD
70
0
0
ENDTAB
0
TABLE
2
DIMSTYLE
5
A
100
AcDbSymbolTable
70
1
0
ENDTAB
0
TABLE
2
BLOCK_RECORD
5
1
100
AcDbSymbolTable
70
1
0
BLOCK_RECORD
5
1F
100
AcDbSymbolTableRecord
100
AcDbBlockTableRecord
2
*MODEL_SPACE
0
BLOCK_RECORD
5
1B
100
AcDbSymbolTableRecord
100
AcDbBlockTableRecord
2
*PAPER_SPACE
0
ENDTAB
0
ENDSEC
0
SECTION
2
BLOCKS
0
BLOCK
5
20
100
AcDbEntity
100
AcDbBlockBegin
2
*MODEL_SPACE
0
ENDBLK
5
21
100
AcDbEntity
100
AcDbBlockEnd
0
BLOCK
5
1C
100
AcDbEntity
100
AcDbBlockBegin
2
*PAPER_SPACE
0
ENDBLK
5
1D
100
AcDbEntity
100
AcDbBlockEnd
0
ENDSEC
0
SECTION
2
ENTITIES
0
LWPOLYLINE
5
100
100
AcDbEntity
8
0
100
AcDbPolyline
90
54
70
1
43
0.0
10
-115.987008
20
-80.486211522338621
42
-0.41421356237309936
10
-116.58700800000003
20
-79.886211522338598
10
-116.58700800000003
20
-74.186210863885705
42
-0.41421356237309193
10
-114.08700800000003
20
-71.686210863885705
10
147.34999008178715
20
-71.686210863885549
42
-0.4142135623730937
10
149.34999008178715
20
-73.686210863885549
10
149.34999008178715
20
-183.88621839774632
42
-0.41421356237309503
10
147.34999008178718
20
-185.88621839774629
10
-147.34999008178718
20
-185.88621839774629
42
-0.41421356237308982
10
-149.34999008178718
20
-183.88621839774632
10
-149.34999008178718
20
-73.686210863885734
42
-0.41421356237309503
10
-147.34999008178715
20
-71.686210863885719
10
-134.52700800000005
20
-71.686210863885719
42
-0.41421356237309503
10
-132.02700800000002
20
-74.186210863885734
10
-132.02700800000002
20
-82.530000770619822
42
-0.49313695801644469
10
-132.78228363636364
20
-83.109560497267424
42
-0.26207161517853306
10
-134.36000000000024
20
-81.566211522338648
42
0.33333333333333692
10
-135.80000000000024
20
-80.486211522338621
10
-142.0500000000001
20
-80.486211522338621
42
0.41421356237309159
10
-143.55000000000007
20
-81.986211522338621
10
-143.55000000000004
20
-175.38621152233861
42
0.41421356237308815
10
-142.05000000000004
20
-176.88621152233856
10
-133.73553390593304
20
-176.88621152233853
42
0.31783724519577183
10
-132.32132034355996
20
-175.88621152233861
42
-0.7283345248487938
10
-128.03999999999979
20
-176.00621152233856
42
0.33333333333332332
10
-126.59999999999981
20
-177.08621152233854
10
-47.000000000000028
20
-177.08621152233849
42
0.33333333333332871
10
-45.560000000000052
20
-176.00621152233853
42
-0.749999999999997
10
-41.239999999999959
20
-176.00621152233853
42
0.33333333333332948
10
-39.799999999999969
20
-177.08621152233854
10
39.800000000000004
20
-177.08621152233849
42
0.33333333333332399
10
41.239999999999988
20
-176.00621152233856
42
-0.75000000000000433
10
45.559999999999988
20
-176.00621152233856
42
0.33333333333332993
10
46.999999999999957
20
-177.08621152233854
10
126.5999999999998
20
-177.08621152233846
42
0.33333333333333692
10
128.03999999999979
20
-176.00621152233845
42
-0.74999999999998856
10
132.36000000000021
20
-176.00621152233845
42
0.33333333333333448
10
133.80000000000021
20
-177.08621152233854
10
142.05000000000007
20
-177.08621152233849
42
0.41421356237308815
10
143.55000000000004
20
-175.58621152233854
10
143.54999999999998
20
-81.986211522338564
42
0.41421356237309503
10
142.04999999999998
20
-80.486211522338564
10
133.80000000000024
20
-80.486211522338564
42
0.33333333333333992
10
132.36000000000024
20
-81.566211522338605
42
-0.75000000000002343
10
128.03999999999974
20
-81.566211522338605
42
0.33333333333334647
10
126.59999999999971
20
-80.486211522338564
10
47.000000000000036
20
-80.486211522338564
42
0.33333333333333481
10
45.560000000000052
20
-81.566211522338591
42
-0.75000000000000999
10
41.239999999999924
20
-81.566211522338591
42
0.33333333333333431
10
39.799999999999926
20
-80.486211522338579
10
-39.800000000000047
20
-80.486211522338607
42
0.33333333333333642
10
-41.240000000000038
20
-81.566211522338605
42
-0.74999999999999456
10
-45.559999999999974
20
-81.566211522338605
42
0.33333333333333326
10
-46.999999999999964
20
-80.486211522338607
0
CIRCLE
5
101
100
AcDbEntity
8
0
100
AcDbCircle
10
46.689999999999955
20
-76.286211522338675
30
9.7699626167013776e-14
40
1.6000000000000014
210
5.3630625961878618e-33
220
0
230
1
0
CIRCLE
5
102
100
AcDbEntity
8
0
100
AcDbCircle
10
-46.689999999999984
20
-181.28621152233848
30
7.9936057773011271e-14
40
1.6000000000000014
210
5.363062596187872e-33
220
0
230
1
0
CIRCLE
5
103
100
AcDbEntity
8
0
100
AcDbCircle
10
46.689999999999955
20
-181.28621152233848
30
7.9936057773011271e-14
40
1.6000000000000014
210
5.363062596187872e-33
220
0
230
1
0
CIRCLE
5
104
100
AcDbEntity
8
0
100
AcDbCircle
10
-46.690000000000026
20
-76.286211522338675
30
8.8817841970012523e-14
40
1.6000000000000014
210
5.3630625961878604e-33
220
0
230
1
0
CIRCLE
5
105
100
AcDbEntity
8
0
100
AcDbCircle
10
140.04999999999995
20
-76.286211522338675
30
9.7699626167013776e-14
40
1.6000000000000014
210
5.3630625961878618e-33
220
0
230
1
0
CIRCLE
5
106
100
AcDbEntity
8
0
100
AcDbCircle
10
-140.04999999999998
20
-181.28621152233848
30
7.9936057773011271e-14
40
1.6000000000000192
210
5.3630625961878713e-33
220
0
230
1
0
CIRCLE
5
107
100
AcDbEntity
8
0
100
AcDbCircle
10
140.04999999999995
20
-181.28621152233848
30
7.9936057773011271e-14
40
1.6000000000000014
210
5.363062596187872e-33
220
0
230
1
0
CIRCLE
5
108
100
AcDbEntity
8
0
100
AcDbCircle
10
-140.05000000000001
20
-76.286211522338675
30
8.8817841970012523e-14
40
1.6000000000000014
210
5.3630625961878604e-33
220
0
230
1
0
ENDSEC
0
SECTION
2
OBJECTS
0
DICTIONARY
5
C
100
AcDbDictionary
3
ACAD_GROUP
350
D
3
ACAD_MLINESTYLE
350
17
0
DICTIONARY
5
D
100
AcDbDictionary
0
DICTIONARY
5
1A
330
C
100
AcDbDictionary
0
DICTIONARY
5
17
100
AcDbDictionary
0
ENDSEC
0
EOF
